<svg xmlns="http://www.w3.org/2000/svg" width="1164" height="459" viewBox="0 0 1164 459" fill="none"><path d="M1056.43 1.36807C1056.43 1.36807 856.861 311.547 536.605 138.965C216.35 -33.6166 129.041 226.784 1.41406 226.784" stroke="#2248FA" stroke-width="2" stroke-linecap="round" stroke-linejoin="round"></path><path d="M1.41406 122.365C1.41406 122.365 209.944 189.947 398.79 312.214C587.636 434.481 668.081 235.234 698.054 188.976C728.026 142.718 818.308 39.2604 966.374 88.1269C1114.44 136.993 1141.63 64.004 1162.95 22.3892" stroke="#2248FA" stroke-width="2" stroke-linecap="round" stroke-linejoin="round"></path><path d="M1.41406 295.286C1.41406 295.286 321.575 291.559 452.366 387.872C583.158 484.185 667.917 441.832 721.429 417.398C774.941 392.964 948.317 305.872 1021.36 344.513C1094.4 383.154 1137.34 457.575 1137.34 457.575" stroke="#2248FA" stroke-width="2" stroke-linecap="round" stroke-linejoin="round"></path></svg>